<svg width="23" height="23" viewBox="0 0 23 23" fill="none" xmlns="http://www.w3.org/2000/svg">
<circle cx="11.5" cy="11.5" r="11.5" fill="#DEDEDE"/>
<g clip-path="url(#clip0_1769:5)">
<path d="M11.4986 4L11.4004 4.31895V13.574L11.4986 13.6677L15.9966 11.1283L11.4986 4Z" fill="#343434"/>
<path d="M11.4999 4L7.00195 11.1282L11.4999 13.6677V9.17557V4Z" fill="#8C8C8C"/>
<path d="M11.4987 14.481L11.4434 14.5455V17.8423L11.4987 17.9967L15.9994 11.9429L11.4987 14.481Z" fill="#3C3C3B"/>
<path d="M11.499 17.9968V14.481L7.00098 11.9429L11.499 17.9968Z" fill="#8C8C8C"/>
<path d="M11.499 13.6676L15.997 11.1282L11.499 9.17554V13.6676Z" fill="#141414"/>
<path d="M7.00098 11.1282L11.4989 13.6676V9.17554L7.00098 11.1282Z" fill="#393939"/>
</g>
<defs>
<clipPath id="clip0_1769:5">
<rect width="9" height="14" fill="white" transform="translate(7 4)"/>
</clipPath>
</defs>
</svg>
