<?xml version="1.0" encoding="utf-8"?>
<!-- Generator: Adobe Illustrator 22.1.0, SVG Export Plug-In . SVG Version: 6.00 Build 0)  -->
<svg version="1.1" id="Слой_1" xmlns="http://www.w3.org/2000/svg" xmlns:xlink="http://www.w3.org/1999/xlink" x="0px" y="0px"
	width="23" height="23" viewBox="0 0 23 23" style="enable-background:new 0 0 23 23;" xml:space="preserve">
<style type="text/css">
	.st0{fill:#DEDEDE;}
	.st1{fill:url(#SVGID_1_);}
</style>
<g>
	<circle class="st0" cx="11.5" cy="11.5" r="11.5"/>
</g>
<linearGradient id="SVGID_1_" gradientUnits="userSpaceOnUse" x1="15.56" y1="17.5208" x2="7.6783" y2="5.0344" gradientTransform="matrix(1 0 0 -1 0 23)">
	<stop  offset="0" style="stop-color:#34F7F1"/>
	<stop  offset="0.11" style="stop-color:#31EEF2"/>
	<stop  offset="0.28" style="stop-color:#2AD7F5"/>
	<stop  offset="0.5" style="stop-color:#1EB1F9"/>
	<stop  offset="0.75" style="stop-color:#0E7DFF"/>
	<stop  offset="0.76" style="stop-color:#0D7BFF"/>
	<stop  offset="0.99" style="stop-color:#0B4DFF"/>
</linearGradient>
<path class="st1" d="M14.2,19.1l4.8-6.2l-0.2-0.5l-1.4-3.3l0,0l-0.4-1l-0.3-0.6L13.3,12l0.7,1.6l2.4-3.1l0.6,1.5l-3.6,4.8h0
	l-2.1-4.9l6-7.7l-2.4-0.3l-1.1,1.5L9.1,4.8l-0.3,0L4,11l0,0l0,0l3,7.2L14.2,19.1L14.2,19.1L14.2,19.1z M8.8,11.6l2.1,4.9l-2.4-0.3
	l-2-4.9L9.7,7l2.4,0.3L8.8,11.6z"/>
</svg>
