<svg width="23" height="24" viewBox="0 0 23 24" fill="none" xmlns="http://www.w3.org/2000/svg">
<g clip-path="url(#clip0_1068:48)">
<path d="M23.0008 11.5683C23.0008 17.9196 17.8522 23.0684 11.501 23.0684C5.14967 23.0684 0.000976562 17.9196 0.000976562 11.5683C0.000976562 5.21705 5.14967 0.0683594 11.501 0.0683594C17.8521 0.0683594 23.0008 5.21705 23.0008 11.5683Z" fill="#1E71BD"/>
<path d="M10.8283 14.6403L11.5753 11.8277L13.3437 11.1816L13.7836 9.52865L13.7686 9.48764L12.0278 10.1236L13.282 5.40088H9.72496L8.08471 11.5641L6.71521 12.0644L6.2627 13.7685L7.63114 13.2687L6.66443 16.9009H16.1312L16.7381 14.6403H10.8283Z" fill="white"/>
</g>
<defs>
<clipPath id="clip0_1068:48">
<rect width="23" height="23" fill="white" transform="translate(0 0.0683594)"/>
</clipPath>
</defs>
</svg>
