<?xml version="1.0" encoding="utf-8"?>
<!-- Generator: Adobe Illustrator 22.1.0, SVG Export Plug-In . SVG Version: 6.00 Build 0)  -->
<svg version="1.1" id="Слой_1" xmlns="http://www.w3.org/2000/svg" xmlns:xlink="http://www.w3.org/1999/xlink" x="0px" y="0px"
	 viewBox="0 0 23 23" style="enable-background:new 0 0 23 23;" xml:space="preserve">
<style type="text/css">
	.st0{fill:#DEDEDE;}
	.st1{fill:#2BBDF7;}
	.st2{fill:#2891F9;}
	.st3{fill:#2B6DEF;}
</style>
<circle class="st0" cx="11.5" cy="11.5" r="11.5"/>
<g>
	<path class="st1" d="M9.8,10.5l1.7,3.7l2.5-1.4l0,0V9.9L9.8,10.5z"/>
	<path class="st2" d="M17.2,7.7l-1.6-0.6L14,7v9l2.5,1.4l2-4l-1.2-3.9L17.2,7.7z"/>
	<path class="st1" d="M17.1,7l-0.6,1.4h0v9L19,16V7H17.1z"/>
	<path class="st3" d="M16.5,5.6L14,7l2.5,1.4L19,7L16.5,5.6z"/>
	<path class="st2" d="M11.5,11.3L11.5,11.3L9,8.5L4,7v9l2.5,1.4l0.7-5L9,12.8v0l2.5,1.4L11.5,11.3L11.5,11.3z"/>
	<path class="st3" d="M6.5,5.6L4,7l7.5,4.3l1.1-0.7L14,9.9L6.5,5.6z"/>
	<path class="st1" d="M6.5,11.3L6.5,11.3l0,6.1L9,16v-3.2L6.5,11.3z"/>
</g>
</svg>
