<svg width="23" height="24" viewBox="0 0 23 24" fill="none" xmlns="http://www.w3.org/2000/svg">
<g clip-path="url(#clip0_1069:52)">
<path d="M11.5 23.9409C17.8513 23.9409 23 18.7922 23 12.4409C23 6.08964 17.8513 0.940918 11.5 0.940918C5.14873 0.940918 0 6.08964 0 12.4409C0 18.7922 5.14873 23.9409 11.5 23.9409Z" fill="#2775C9"/>
<path fill-rule="evenodd" clip-rule="evenodd" d="M10.81 8.17083V7.45266C10.81 7.07158 11.1189 6.76266 11.5 6.76266C11.8811 6.76266 12.19 7.07158 12.19 7.45266V8.16835C13.4386 8.35634 14.2946 9.06622 14.5231 10.0777C14.5727 10.2971 14.435 10.5151 14.2156 10.5646C14.1862 10.5713 14.1561 10.5746 14.1259 10.5746L13.7526 10.5746C13.4506 10.5746 13.1757 10.4002 13.0472 10.1269C12.8091 9.62081 12.2448 9.32942 11.4934 9.32942C10.5537 9.32942 9.91954 9.79062 9.91954 10.4824C9.91954 11.0359 10.3404 11.3587 11.3608 11.6008L12.3178 11.8199C14.0069 12.2061 14.7218 12.9037 14.7218 14.1432C14.7218 15.5166 13.7629 16.4455 12.19 16.6646V17.496C12.19 17.8771 11.8811 18.186 11.5 18.186C11.1189 18.186 10.81 17.8771 10.81 17.496V16.6776C9.41677 16.5094 8.47581 15.772 8.25479 14.6438C8.21842 14.4581 8.33942 14.2781 8.52506 14.2418C8.54675 14.2375 8.56881 14.2354 8.59091 14.2354V14.2354L9.15758 14.2354C9.41407 14.2354 9.64766 14.383 9.7578 14.6147C10.0187 15.1633 10.6863 15.5037 11.5222 15.5037C12.5253 15.5037 13.2229 15.0079 13.2229 14.3161C13.2229 13.7166 12.7963 13.3707 11.747 13.1228L10.669 12.8691C9.1355 12.5175 8.40911 11.7795 8.40911 10.5919C8.40911 9.31307 9.37446 8.3935 10.81 8.17083ZM2.875 12.441C2.875 8.6351 5.35922 5.40722 8.80051 4.27855C9.01785 4.20727 9.25182 4.32567 9.3231 4.543C9.33676 4.58466 9.34372 4.62823 9.34372 4.67207L9.34373 4.91516C9.34373 5.2857 9.11897 5.61922 8.77551 5.7583C6.12789 6.83046 4.26116 9.41855 4.26116 12.441C4.26116 15.4619 6.12609 18.049 8.77168 19.1221C9.11749 19.2623 9.34373 19.5982 9.34373 19.9714L9.34374 20.1741C9.34374 20.4171 9.14676 20.6141 8.90377 20.6141C8.85655 20.6141 8.80964 20.6065 8.76483 20.5916C5.34206 19.4524 2.875 16.2336 2.875 12.441ZM20.125 12.441C20.125 16.2247 17.6696 19.4371 14.2595 20.5834C14.02 20.664 13.7606 20.5351 13.6801 20.2956C13.6643 20.2486 13.6562 20.1994 13.6562 20.1498L13.6563 19.9874C13.6563 19.6052 13.8876 19.2611 14.2414 19.1167C16.8801 18.0404 18.7388 15.4569 18.7388 12.441C18.7388 9.42784 16.8836 6.84636 14.2489 5.76822C13.8904 5.62155 13.6563 5.2727 13.6563 4.88541L13.6563 4.73732C13.6563 4.48259 13.8628 4.2761 14.1175 4.2761C14.1675 4.2761 14.2173 4.28425 14.2647 4.30024C17.6721 5.44811 20.125 8.65919 20.125 12.441Z" fill="white"/>
</g>
<defs>
<clipPath id="clip0_1069:52">
<rect width="23" height="23" fill="white" transform="translate(0 0.940918)"/>
</clipPath>
</defs>
</svg>
