<svg width="20" height="21" viewBox="0 0 20 21" fill="none" xmlns="http://www.w3.org/2000/svg">
<g clip-path="url(#clip0_19_1329)">
<path d="M9.85748 10.1341C11.181 10.1341 12.327 9.65939 13.2635 8.72281C14.1998 7.78638 14.6747 6.64059 14.6747 5.31689C14.6747 3.99365 14.2 2.84772 13.2634 1.91098C12.3268 0.974701 11.1809 0.5 9.85748 0.5C8.53378 0.5 7.388 0.974701 6.45157 1.91113C5.51514 2.84756 5.04028 3.9935 5.04028 5.31689C5.04028 6.64059 5.51514 7.78653 6.45157 8.72296C7.38831 9.65924 8.53424 10.1341 9.85748 10.1341ZM7.28043 2.73984C7.99896 2.0213 8.84186 1.67203 9.85748 1.67203C10.873 1.67203 11.716 2.0213 12.4347 2.73984C13.1532 3.45853 13.5027 4.30157 13.5027 5.31689C13.5027 6.33252 13.1532 7.17542 12.4347 7.8941C11.716 8.61279 10.873 8.96207 9.85748 8.96207C8.84216 8.96207 7.99927 8.61264 7.28043 7.8941C6.56174 7.17557 6.21231 6.33252 6.21231 5.31689C6.21231 4.30157 6.56174 3.45853 7.28043 2.73984Z" fill="#B5BBC6"/>
<path d="M18.2863 15.8789C18.2593 15.4892 18.2047 15.0641 18.1242 14.6151C18.0431 14.1629 17.9385 13.7353 17.8134 13.3445C17.684 12.9406 17.5084 12.5418 17.291 12.1595C17.0656 11.7628 16.8007 11.4174 16.5034 11.1331C16.1926 10.8357 15.8121 10.5966 15.372 10.4222C14.9335 10.2487 14.4475 10.1608 13.9276 10.1608C13.7234 10.1608 13.526 10.2446 13.1447 10.4928C12.91 10.6459 12.6355 10.8229 12.3291 11.0186C12.0671 11.1856 11.7122 11.342 11.2738 11.4836C10.8461 11.622 10.4118 11.6922 9.98306 11.6922C9.5546 11.6922 9.12033 11.622 8.69232 11.4836C8.25439 11.3421 7.89932 11.1857 7.63779 11.0188C7.33429 10.8249 7.05963 10.6479 6.82144 10.4927C6.44043 10.2444 6.24298 10.1606 6.03882 10.1606C5.5188 10.1606 5.03296 10.2487 4.59457 10.4223C4.15482 10.5964 3.77411 10.8355 3.46298 11.1332C3.16574 11.4177 2.90085 11.763 2.67563 12.1595C2.4585 12.5418 2.28271 12.9405 2.15332 13.3447C2.02835 13.7355 1.92383 14.1629 1.84265 14.6151C1.76208 15.0634 1.70761 15.4887 1.6806 15.8793C1.65405 16.2613 1.64062 16.6588 1.64062 17.0604C1.64062 18.1044 1.9725 18.9496 2.62695 19.5729C3.27332 20.188 4.12842 20.4998 5.16861 20.4998H14.7987C15.8386 20.4998 16.6937 20.188 17.3402 19.5729C17.9948 18.95 18.3267 18.1045 18.3267 17.0602C18.3266 16.6572 18.313 16.2597 18.2863 15.8789ZM16.5321 18.7237C16.105 19.1302 15.538 19.3278 14.7986 19.3278H5.16861C4.42902 19.3278 3.862 19.1302 3.43506 18.7239C3.0162 18.3252 2.81265 17.7809 2.81265 17.0604C2.81265 16.6856 2.82501 16.3156 2.84973 15.9604C2.87384 15.6118 2.92313 15.229 2.99622 14.8222C3.06839 14.4204 3.16025 14.0434 3.2695 13.7021C3.37433 13.3748 3.5173 13.0507 3.69461 12.7385C3.86383 12.4409 4.05853 12.1856 4.27338 11.9799C4.47433 11.7875 4.72763 11.6301 5.02609 11.512C5.30212 11.4027 5.61234 11.3429 5.9491 11.3339C5.99014 11.3557 6.06323 11.3974 6.18164 11.4746C6.42258 11.6316 6.70029 11.8107 7.00729 12.0068C7.35336 12.2274 7.79922 12.4267 8.33191 12.5987C8.8765 12.7748 9.43192 12.8642 9.98322 12.8642C10.5345 12.8642 11.0901 12.7748 11.6344 12.5988C12.1675 12.4266 12.6132 12.2274 12.9597 12.0065C13.2739 11.8057 13.5439 11.6317 13.7848 11.4746C13.9032 11.3975 13.9763 11.3557 14.0173 11.3339C14.3542 11.3429 14.6645 11.4027 14.9406 11.512C15.239 11.6301 15.4922 11.7877 15.6932 11.9799C15.9081 12.1855 16.1028 12.4408 16.272 12.7386C16.4494 13.0507 16.5926 13.3749 16.6972 13.7019C16.8066 14.0437 16.8987 14.4206 16.9707 14.8221C17.0436 15.2296 17.093 15.6126 17.1172 15.9605V15.9608C17.142 16.3147 17.1545 16.6845 17.1547 17.0604C17.1545 17.781 16.951 18.3252 16.5321 18.7237Z" fill="#B5BBC6"/>
</g>
<defs>
<clipPath id="clip0_19_1329">
<rect width="20" height="20" fill="white" transform="translate(0 0.5)"/>
</clipPath>
</defs>
</svg>
