<svg width="28" height="28" viewBox="0 0 28 28" fill="none" xmlns="http://www.w3.org/2000/svg">
<path d="M14.6346 11.13V12.5378C14.6346 12.9849 14.7239 13.36 14.9002 13.6522C15.1433 14.0555 15.5423 14.2867 15.9954 14.2867C16.4393 14.2867 16.8804 14.0705 17.3064 13.6445L21.9561 8.99481C22.977 7.97391 22.977 6.31277 21.9561 5.29187L17.3064 0.642151C16.8804 0.215973 16.4393 0 15.9954 0C15.318 0 14.6346 0.540894 14.6346 1.74893V3.02747C8.03325 3.41733 2.56834 8.4834 1.75615 15.1162C1.71065 15.4866 1.92128 15.8412 2.26842 15.9786C2.36668 16.0175 2.46901 16.0363 2.57005 16.0363C2.82597 16.0363 3.0742 15.9164 3.23228 15.7004C5.41081 12.7238 8.90868 10.9467 12.589 10.9467C13.2709 10.9467 13.9566 11.0082 14.6346 11.13Z" fill="#3DB9FF"/>
<path d="M25.7174 12.0213C25.3703 11.8838 24.9742 11.9983 24.7536 12.2997C22.5753 15.2761 19.0774 17.0532 15.3971 17.0532C14.7152 17.0532 14.0295 16.9917 13.3514 16.87V15.4622C13.3514 14.2541 12.6678 13.7132 11.9907 13.7132C11.5468 13.7132 11.1056 13.9294 10.6794 14.3556L6.02972 19.0051C5.00903 20.026 5.00903 21.6872 6.02994 22.7083L10.6794 27.3578C11.1056 27.784 11.5468 27.9999 11.9907 27.9999C12.6678 27.9999 13.3514 27.459 13.3514 26.251V24.9725C19.953 24.5826 25.4177 19.5165 26.2299 12.884C26.2754 12.5133 26.0648 12.1587 25.7174 12.0213Z" fill="#3DB9FF"/>
</svg>