<svg aria-hidden="true" style="position: absolute; width: 0; height: 0; overflow: hidden;" version="1.1" xmlns="http://www.w3.org/2000/svg" xmlns:xlink="http://www.w3.org/1999/xlink">
    <defs>
        <symbol id="eye-hidden-icon" viewBox="0 0 15 11">
            <path
            fill-rule="evenodd"
            clip-rule="evenodd"
            d="M7.5001 4.018C7.1449 4.018 6.80425 4.1591 6.55309 4.41026C6.30192 4.66143 6.16082 5.00208 6.16082 5.35728C6.16082 5.71248 6.30192 6.05314 6.55309 6.3043C6.80425 6.55547 7.1449 6.69657 7.5001 6.69657C7.85531 6.69657 8.19596 6.55547 8.44712 6.3043C8.69829 6.05314 8.83939 5.71248 8.83939 5.35728C8.83939 5.00208 8.69829 4.66143 8.44712 4.41026C8.19596 4.1591 7.85531 4.018 7.5001 4.018ZM5.60607 3.46325C6.1084 2.96092 6.7897 2.67871 7.5001 2.67871C8.21051 2.67871 8.89181 2.96092 9.39414 3.46325C9.89647 3.96558 10.1787 4.64688 10.1787 5.35728C10.1787 6.06768 9.89647 6.74899 9.39414 7.25132C8.89181 7.75365 8.21051 8.03585 7.5001 8.03585C6.7897 8.03585 6.1084 7.75365 5.60607 7.25132C5.10374 6.74899 4.82153 6.06768 4.82153 5.35728C4.82153 4.64688 5.10374 3.96558 5.60607 3.46325Z"
          ></path>
            <path
            fill-rule="evenodd"
            clip-rule="evenodd"
            d="M0 5.35714V5.55777C0.999008 8.54564 3.97125 10.7143 7.48362 10.7143C10.9967 10.7143 13.9683 8.5456 14.9672 5.55777C15.0109 5.42716 15.0109 5.28712 14.9672 5.15652C13.9683 2.16868 10.9967 0 7.48362 0C3.97125 0 0.999008 2.16864 0 5.15652V5.35714ZM1.43174 5.35714C2.31265 7.69849 4.69099 9.375 7.48362 9.375C10.2769 9.375 12.6546 7.69852 13.5355 5.35714C12.6546 3.01576 10.2769 1.33929 7.48362 1.33929C4.69099 1.33929 2.31265 3.0158 1.43174 5.35714Z"
          ></path>
        </symbol>
        <symbol id="eye-icon" viewBox="0 0 18 16">
            <path d="M9.00409 3.36842C11.2633 3.36842 13.0969 5.25474 13.0969 7.57895C13.0969 8.12632 12.9904 8.64 12.8022 9.12L15.1924 11.5789C16.4284 10.5179 17.4025 9.14526 18 7.57895C16.5839 3.88211 13.0887 1.26316 8.99591 1.26316C7.84993 1.26316 6.75307 1.47368 5.73806 1.85263L7.50614 3.67158C7.97271 3.47789 8.47203 3.36842 9.00409 3.36842ZM0.818554 1.06947L2.68486 2.98947L3.06139 3.37684C1.70259 4.46316 0.638472 5.91158 0 7.57895C1.4161 11.2758 4.91132 13.8947 9.00409 13.8947C10.2729 13.8947 11.4843 13.6421 12.5894 13.1874L12.9332 13.5411L15.3315 16L16.3711 14.9305L1.85812 0L0.818554 1.06947ZM5.34516 5.72632L6.61392 7.03158C6.57299 7.20842 6.54843 7.39368 6.54843 7.57895C6.54843 8.97684 7.64529 10.1053 9.00409 10.1053C9.18417 10.1053 9.36426 10.08 9.53615 10.0379L10.8049 11.3432C10.2565 11.6211 9.65075 11.7895 9.00409 11.7895C6.74488 11.7895 4.91132 9.90316 4.91132 7.57895C4.91132 6.91368 5.07503 6.29053 5.34516 5.72632ZM8.87312 5.06947L11.4516 7.72211L11.4679 7.58737C11.4679 6.18947 10.3711 5.06105 9.01228 5.06105L8.87312 5.06947Z"/>
        </symbol>
        <symbol id="close-circle-icon" viewBox="0 0 20 20">
            <path d="M10 19C14.9706 19 19 14.9706 19 10C19 5.02944 14.9706 1 10 1C5.02944 1 1 5.02944 1 10C1 14.9706 5.02944 19 10 19Z" stroke="#9196A7" stroke-width="2" stroke-miterlimit="10" stroke-linecap="round" stroke-linejoin="round"/>
            <path d="M7 7L12.9999 12.9999" stroke="#9196A7" stroke-width="2" stroke-linecap="round" stroke-linejoin="round"/>
            <path d="M7 12.9999L12.9999 7" stroke="#9196A7" stroke-width="2" stroke-linecap="round" stroke-linejoin="round"/>
        </symbol>
        <symbol id="walletconnect-logo" viewBox="0 0 300 185">
            <g stroke="none" stroke-width="1" fill-rule="evenodd">
                <g id="walletconnect-logo-alt" fill-rule="nonzero">
                    <path d="M61.4385429,36.2562612 C110.349767,-11.6319051 189.65053,-11.6319051 238.561752,36.2562612 L244.448297,42.0196786 C246.893858,44.4140867 246.893858,48.2961898 244.448297,50.690599 L224.311602,70.406102 C223.088821,71.6033071 221.106302,71.6033071 219.883521,70.406102 L211.782937,62.4749541 C177.661245,29.0669724 122.339051,29.0669724 88.2173582,62.4749541 L79.542302,70.9685592 C78.3195204,72.1657633 76.337001,72.1657633 75.1142214,70.9685592 L54.9775265,51.2530561 C52.5319653,48.8586469 52.5319653,44.9765439 54.9775265,42.5821357 L61.4385429,36.2562612 Z M280.206339,77.0300061 L298.128036,94.5769031 C300.573585,96.9713 300.573599,100.85338 298.128067,103.247793 L217.317896,182.368927 C214.872352,184.763353 210.907314,184.76338 208.461736,182.368989 C208.461726,182.368979 208.461714,182.368967 208.461704,182.368957 L151.107561,126.214385 C150.496171,125.615783 149.504911,125.615783 148.893521,126.214385 C148.893517,126.214389 148.893514,126.214393 148.89351,126.214396 L91.5405888,182.368927 C89.095052,184.763359 85.1300133,184.763399 82.6844276,182.369014 C82.6844133,182.369 82.684398,182.368986 82.6843827,182.36897 L1.87196327,103.246785 C-0.573596939,100.852377 -0.573596939,96.9702735 1.87196327,94.5758653 L19.7936929,77.028998 C22.2392531,74.6345898 26.2042918,74.6345898 28.6498531,77.028998 L86.0048306,133.184355 C86.6162214,133.782957 87.6074796,133.782957 88.2188704,133.184355 C88.2188796,133.184346 88.2188878,133.184338 88.2188969,133.184331 L145.571,77.028998 C148.016505,74.6345347 151.981544,74.6344449 154.427161,77.028798 C154.427195,77.0288316 154.427229,77.0288653 154.427262,77.028899 L211.782164,133.184331 C212.393554,133.782932 213.384814,133.782932 213.996204,133.184331 L271.350179,77.0300061 C273.79574,74.6355969 277.760778,74.6355969 280.206339,77.0300061 Z" id="WalletConnect"></path>
                </g>
            </g>
        </symbol>
    </defs>
</svg>