<svg width="20" height="21" viewBox="0 0 20 21" fill="none" xmlns="http://www.w3.org/2000/svg">
<path d="M19.6169 7.90406C19.3678 7.67417 19.0421 7.52091 18.6782 7.52091C18.6973 7.52091 18.7165 7.52091 18.7356 7.52091V5.54773C18.7356 4.74314 18.41 4.01517 17.8736 3.47877C17.3372 2.94237 16.6092 2.6167 15.8046 2.6167H2.93103C2.12644 2.6167 1.39847 2.94237 0.862069 3.47877C0.325671 4.01517 0 4.74314 0 5.54773V15.4519C0 16.2565 0.325671 16.9845 0.862069 17.5209C1.39847 18.0573 2.12644 18.383 2.93103 18.383H15.8046C16.6092 18.383 17.3372 18.0573 17.8736 17.5209C18.41 16.9845 18.7356 16.2565 18.7356 15.4519V13.4596C18.7165 13.4596 18.6973 13.4596 18.6782 13.4596C19.0421 13.4596 19.3678 13.3064 19.6169 13.0765C19.8467 12.8466 20 12.5018 20 12.1378V8.84275C20 8.47877 19.8467 8.1531 19.6169 7.90406ZM17.682 15.4328C17.682 15.95 17.4713 16.4098 17.1264 16.7546C16.7816 17.0995 16.3218 17.3102 15.8046 17.3102H2.93103C2.41379 17.3102 1.95402 17.0995 1.6092 16.7546C1.26437 16.4098 1.05364 15.95 1.05364 15.4328V5.54773C1.05364 5.03049 1.26437 4.57072 1.6092 4.22589C1.95402 3.88107 2.41379 3.67034 2.93103 3.67034H15.8046C16.3218 3.67034 16.7816 3.88107 17.1264 4.22589C17.4713 4.57072 17.682 5.03049 17.682 5.54773V7.52091H11.7433C10.9387 7.52091 10.2299 7.84658 9.69349 8.36383C9.17624 8.88107 8.85057 9.60904 8.85057 10.4136V10.5477C8.85057 11.3523 9.17624 12.0611 9.69349 12.5975C10.2107 13.1148 10.9387 13.4405 11.7433 13.4405H17.682V15.4328ZM18.9464 12.1378C18.9464 12.2144 18.908 12.291 18.8697 12.3293C18.8123 12.3868 18.7548 12.406 18.6782 12.406H11.7433C11.2452 12.406 10.7663 12.1952 10.4406 11.8696C10.1149 11.5439 9.90421 11.065 9.90421 10.5669V10.4328C9.90421 9.91555 10.1149 9.45578 10.4406 9.13011C10.7854 8.78528 11.2452 8.59371 11.7433 8.59371H18.6782C18.7548 8.59371 18.8314 8.63203 18.8697 8.67034C18.9272 8.72781 18.9464 8.78528 18.9464 8.86191V12.1378Z" fill="white"/>
<path d="M11.8773 9.62842C11.6475 9.62842 11.4367 9.7242 11.2835 9.87746C11.1302 10.0307 11.0344 10.2414 11.0344 10.4713C11.0344 10.7012 11.1302 10.9119 11.2835 11.0652C11.4367 11.2185 11.6475 11.3142 11.8773 11.3142C12.1072 11.3142 12.3179 11.2185 12.4904 11.0652C12.6436 10.9119 12.7394 10.7012 12.7394 10.4522C12.7394 10.2223 12.6436 10.0116 12.4904 9.83915C12.3179 9.7242 12.1072 9.62842 11.8773 9.62842Z" fill="white"/>
</svg>
