<svg width="20" height="21" viewBox="0 0 20 21" fill="none" xmlns="http://www.w3.org/2000/svg">
<g clip-path="url(#clip0_38_1506)">
<path d="M12.375 18.4169H7.62505C7.37505 18.4169 7.20838 18.2502 7.20838 18.0002V15.6669C7.20838 13.9169 6.54172 12.1252 5.33338 10.7086C4.25005 9.41689 3.79172 7.83356 3.95838 6.16689C4.25005 3.20856 6.70838 0.875222 9.70838 0.708555C13.2084 0.500222 16.1667 3.33355 16.1667 6.79189C16.1667 8.20856 15.6667 9.58355 14.75 10.6669C13.5 12.1669 12.8334 13.9586 12.8334 15.7502V18.0002C12.7917 18.2502 12.625 18.4169 12.375 18.4169ZM8.04172 17.5836H11.9584V15.7502C11.9584 13.7919 12.7084 11.7919 14.0417 10.1252C14.8334 9.16689 15.25 8.00022 15.25 6.79189C15.25 3.79189 12.7084 1.37522 9.66672 1.54189C7.12505 1.70855 5.00005 3.70856 4.75005 6.25022C4.58338 7.66689 5.04172 9.08356 5.95838 10.1669C7.29172 11.7919 8.04172 13.7502 8.04172 15.6669V17.5836Z" fill="#EBECF0"/>
<path d="M10.0001 20.2917C8.75008 20.2917 7.70841 19.2917 7.66675 18.0417V17.625H12.3334V18.0417C12.2917 19.2917 11.2501 20.2917 10.0001 20.2917ZM8.58342 18.4167C8.79175 19 9.33341 19.4583 10.0001 19.4583C10.6667 19.4583 11.2084 19.0417 11.4167 18.4167H8.58342Z" fill="#EBECF0"/>
<path d="M7.375 13.917H12.5833V14.7503H7.375V13.917Z" fill="#EBECF0"/>
<path d="M7.58337 15.7085H12.4584V16.5418H7.58337V15.7085Z" fill="#EBECF0"/>
<path d="M12.375 18.4169H7.62505C7.37505 18.4169 7.20838 18.2502 7.20838 18.0002V15.6669C7.20838 13.9169 6.54172 12.1252 5.33338 10.7086C4.25005 9.41689 3.79172 7.83356 3.95838 6.16689C4.25005 3.20856 6.70838 0.875222 9.70838 0.708555C13.2084 0.500222 16.1667 3.33355 16.1667 6.79189C16.1667 8.20856 15.6667 9.58355 14.75 10.6669C13.5 12.1669 12.8334 13.9586 12.8334 15.7502V18.0002C12.7917 18.2502 12.625 18.4169 12.375 18.4169ZM8.04172 17.5836H11.9584V15.7502C11.9584 13.7919 12.7084 11.7919 14.0417 10.1252C14.8334 9.16689 15.25 8.00022 15.25 6.79189C15.25 3.79189 12.7084 1.37522 9.66672 1.54189C7.12505 1.70855 5.00005 3.70856 4.75005 6.25022C4.58338 7.66689 5.04172 9.08356 5.95838 10.1669C7.29172 11.7919 8.04172 13.7502 8.04172 15.6669V17.5836Z" fill="#EBECF0"/>
<path d="M10.0001 20.2917C8.75008 20.2917 7.70841 19.2917 7.66675 18.0417V17.625H12.3334V18.0417C12.2917 19.2917 11.2501 20.2917 10.0001 20.2917ZM8.58342 18.4167C8.79175 19 9.33341 19.4583 10.0001 19.4583C10.6667 19.4583 11.2084 19.0417 11.4167 18.4167H8.58342Z" fill="#EBECF0"/>
<path d="M7.375 13.917H12.5833V14.7503H7.375V13.917Z" fill="#EBECF0"/>
<path d="M7.58337 15.7085H12.4584V16.5418H7.58337V15.7085Z" fill="#EBECF0"/>
</g>
<defs>
<clipPath id="clip0_38_1506">
<rect width="20" height="20" fill="white" transform="translate(0 0.5)"/>
</clipPath>
</defs>
</svg>
