<svg width="20" height="17" viewBox="0 0 20 17" fill="none" xmlns="http://www.w3.org/2000/svg">
<path d="M19.0024 15.7625H5.62845C5.07724 15.7625 4.63049 15.3158 4.63049 14.7646C4.63049 14.2134 5.07724 13.7666 5.62845 13.7666H19.002C19.5532 13.7666 20 14.2134 20 14.7646C20 15.3158 19.5536 15.7625 19.0024 15.7625Z" fill="white"/>
<path d="M19.0024 9.49835H5.62845C5.07724 9.49835 4.63049 9.0516 4.63049 8.5004C4.63049 7.94919 5.07724 7.50244 5.62845 7.50244H19.002C19.5532 7.50244 20 7.94919 20 8.5004C20.0003 9.0516 19.5536 9.49835 19.0024 9.49835Z" fill="white"/>
<path d="M19.0024 3.23419H5.62845C5.07724 3.23419 4.63049 2.78744 4.63049 2.23624C4.63049 1.68503 5.07724 1.23828 5.62845 1.23828H19.002C19.5532 1.23828 20 1.68503 20 2.23624C20 2.78744 19.5536 3.23419 19.0024 3.23419Z" fill="white"/>
<path d="M1.34025 3.65365C2.08045 3.65365 2.6805 3.0536 2.6805 2.3134C2.6805 1.5732 2.08045 0.973145 1.34025 0.973145C0.600051 0.973145 0 1.5732 0 2.3134C0 3.0536 0.600051 3.65365 1.34025 3.65365Z" fill="white"/>
<path d="M1.34025 9.84066C2.08045 9.84066 2.6805 9.24061 2.6805 8.50041C2.6805 7.76021 2.08045 7.16016 1.34025 7.16016C0.600051 7.16016 0 7.76021 0 8.50041C0 9.24061 0.600051 9.84066 1.34025 9.84066Z" fill="white"/>
<path d="M1.34025 16.0277C2.08045 16.0277 2.6805 15.4276 2.6805 14.6874C2.6805 13.9472 2.08045 13.3472 1.34025 13.3472C0.600051 13.3472 0 13.9472 0 14.6874C0 15.4276 0.600051 16.0277 1.34025 16.0277Z" fill="white"/>
</svg>
