<svg width="20" height="20" viewBox="0 0 20 20" fill="none" xmlns="http://www.w3.org/2000/svg">
<g clip-path="url(#clip0_19_1286)">
<path d="M16.8424 7.60504V6.83613C16.8424 4.9958 16.1911 3.28571 15.0104 2.01681C13.8004 0.714286 12.1365 0 10.3214 0H9.68692C7.87179 0 6.20793 0.714286 4.99784 2.01681C3.81717 3.28571 3.16591 4.9958 3.16591 6.83613V7.60504C1.73314 7.70168 0.594482 8.89496 0.594482 10.3529V11.5546C0.594482 13.0714 1.82978 14.3067 3.34658 14.3067H4.897C5.17431 14.3067 5.40121 14.0798 5.40121 13.8025V8.10084C5.40121 7.82353 5.17431 7.59664 4.897 7.59664H4.17431V6.83613C4.17431 3.51261 6.54406 1.0084 9.68272 1.0084H10.3172C13.46 1.0084 15.8256 3.51261 15.8256 6.83613V7.59664H15.1029C14.8256 7.59664 14.5987 7.82353 14.5987 8.10084V13.7983C14.5987 14.0756 14.8256 14.3025 15.1029 14.3025H15.8088C15.6029 16.9328 13.792 17.542 12.9516 17.6807C12.7205 16.9706 12.0525 16.458 11.2668 16.458H10.0062C9.03146 16.458 8.23734 17.2521 8.23734 18.2269C8.23734 19.2017 9.03146 20 10.0062 20H11.271C12.0861 20 12.771 19.4454 12.9768 18.6975C13.3886 18.6387 14.0399 18.4916 14.6869 18.1134C15.5987 17.5798 16.6785 16.4916 16.8214 14.2983C18.2625 14.2101 19.4054 13.0126 19.4054 11.5504V10.3487C19.4096 8.89496 18.2752 7.69748 16.8424 7.60504ZM4.4012 13.2941H3.35499C2.3928 13.2941 1.61129 12.5126 1.61129 11.5504V10.3487C1.61129 9.38655 2.3928 8.60504 3.35499 8.60504H4.4012V13.2941ZM11.271 18.9916H10.0062C9.58608 18.9916 9.24574 18.6513 9.24574 18.2311C9.24574 17.8109 9.58608 17.4706 10.0062 17.4706H11.271C11.6911 17.4706 12.0315 17.8109 12.0315 18.2311C12.0315 18.6513 11.6911 18.9916 11.271 18.9916ZM18.4012 11.5504C18.4012 12.5126 17.6197 13.2941 16.6575 13.2941H15.6113V8.60504H16.6575C17.6197 8.60504 18.4012 9.38655 18.4012 10.3487V11.5504Z" fill="white"/>
</g>
<defs>
<clipPath id="clip0_19_1286">
<rect width="20" height="20" fill="white"/>
</clipPath>
</defs>
</svg>
