<?xml version="1.0" encoding="utf-8"?>
<!-- Generator: Adobe Illustrator 22.1.0, SVG Export Plug-In . SVG Version: 6.00 Build 0)  -->
<svg version="1.1" id="Слой_1" xmlns="http://www.w3.org/2000/svg" xmlns:xlink="http://www.w3.org/1999/xlink" x="0px" y="0px"
	 viewBox="0 0 78 52" style="enable-background:new 0 0 78 52;" xml:space="preserve">
<style type="text/css">
	.st0{fill:#F3F5F5;}
	.st1{fill:#455A64;}
	.st2{fill:#53E29E;}
</style>
<path class="st0" d="M8.1,0h61.7C74.4,0,78,3.6,78,8.1v35.8c0,4.5-3.6,8.1-8.1,8.1H8.1C3.6,52,0,48.4,0,43.9V8.1C0,3.6,3.6,0,8.1,0z
	"/>
<path class="st1" d="M78,9.8H0v13h78V9.8z"/>
<path class="st2" d="M24.4,35.8h-13c-0.9,0-1.6-0.7-1.6-1.6c0-0.9,0.7-1.6,1.6-1.6h13c0.9,0,1.6,0.7,1.6,1.6
	C26,35,25.3,35.8,24.4,35.8z"/>
<path class="st2" d="M34.1,42.3H11.4c-0.9,0-1.6-0.7-1.6-1.6c0-0.9,0.7-1.6,1.6-1.6h22.7c0.9,0,1.6,0.7,1.6,1.6
	C35.8,41.5,35,42.3,34.1,42.3z"/>
</svg>
