<?xml version="1.0" encoding="utf-8"?>
<!-- Generator: Adobe Illustrator 22.1.0, SVG Export Plug-In . SVG Version: 6.00 Build 0)  -->
<svg version="1.1" id="Слой_1" xmlns="http://www.w3.org/2000/svg" xmlns:xlink="http://www.w3.org/1999/xlink" x="0px" y="0px"
	 viewBox="0 0 69.9 72.9" style="enable-background:new 0 0 69.9 72.9;" xml:space="preserve">
<style type="text/css">
	.st0{fill:#E4761B;}
	.st1{fill:#F6851B;}
	.st2{fill:#763D16;}
	.st3{fill:#E2761B;}
	.st4{fill:#C0AD9E;}
	.st5{fill:#CD6116;}
	.st6{fill:#E4751F;}
	.st7{fill:#233447;}
	.st8{fill:#D7C1B3;}
	.st9{fill:#161616;}
</style>
<path class="st0" d="M66,50.8L61.8,65l-8.2-2.3L66,50.8z"/>
<path class="st0" d="M61.8,65.1l-8.5-2.3l12.8-12.3L61.8,65.1z M53.7,62.7l8,2.2L65.8,51L53.7,62.7z"/>
<path class="st0" d="M53.5,62.8l7.9-11l4.5-1.1L53.5,62.8z"/>
<path class="st0" d="M52.9,63.5l8.5-11.8l4.8-1.1L52.9,63.5z M61.5,51.9L54.2,62l11.5-11.1L61.5,51.9z"/>
<path class="st1" d="M59.8,40L66,50.8l-4.5,1.1L59.8,40z M59.8,40l4-2.8L66,50.8L59.8,40z"/>
<path class="st1" d="M61.4,51.9L59.7,40l0-0.1l0,0l-0.1-0.4l0.2,0.3l4-2.8L66,50.7l0,0.1l0,0l0.1,0.4l-0.2-0.4L61.4,51.9z
	 M59.9,40.4l1.6,11.3l4.3-1L59.9,40.4z M59.9,40l5.9,10.3l-2.1-12.9L59.9,40z"/>
<path class="st2" d="M54.7,31.9l11.4-4.7l-0.6,2.6L54.7,31.9z M65.2,32.8l-10.5-1l10.9-2.1L65.2,32.8z"/>
<path class="st2" d="M65.3,32.9l-10.6-1l-0.8,0.2l0.5-0.2l-0.2,0l0.6-0.1L66.3,27l-0.6,2.7L65.3,32.9z M55.3,31.8l9.8,0.9l0.3-2.9
	L55.3,31.8z M66,27.3l-10.5,4.3l9.9-1.9L66,27.3z"/>
<path class="st2" d="M65.2,32.8l-1.5,4.4l-9-5.4L65.2,32.8z M67.5,28.2l-1.9,1.5l0.6-2.6L67.5,28.2z M65.2,32.8l0.4-3.1l1.5,1.3
	L65.2,32.8z"/>
<path class="st2" d="M63.8,37.4l-9.5-5.6l10.8,1l0.3-2.8l0,0l0-0.2l0-0.2l0,0l0.6-2.6l1.6,1.2l-1.9,1.5l1.5,1.3l-1.9,1.9L63.8,37.4z
	 M55.1,32l8.6,5.1l1.4-4.2L55.1,32z M65.7,29.9l-0.3,2.7L67,31L65.7,29.9z M66.2,27.3l-0.5,2.2l1.7-1.3L66.2,27.3z"/>
<path class="st3" d="M44.7,59.3l2.9,0.9l6,2.6L44.7,59.3z"/>
<path class="st3" d="M53.5,62.8l-8.9-3.5l0.1-0.2l2.9,0.9h0l6,2.6L53.5,62.8z M47.2,60.2l0.8,0.3l-0.5-0.2L47.2,60.2z"/>
<path class="st2" d="M63.8,37.2l1.5-4.4l1.3,1L63.8,37.2z M63.8,37.2l-11.9-3.9l2.8-1.4L63.8,37.2z"/>
<path class="st2" d="M63.5,37.7l0.1-0.4l-12-4l3-1.6l9,5.3l1.5-4.4l1.4,1.1l-2.7,3.4l0.6,0.4l-0.7-0.2L63.5,37.7z M52.1,33.3
	L63,36.9L54.7,32L52.1,33.3z M65.3,33L64,36.8l2.4-3L65.3,33z"/>
<path class="st2" d="M57.6,18.4l-2.8,13.5l-2.8,1.4L57.6,18.4z"/>
<path class="st2" d="M51.8,33.5l6.1-16.2l-3.1,14.6L51.8,33.5z M57.2,19.4l-5.2,13.7l2.6-1.3L57.2,19.4z"/>
<path class="st2" d="M66.2,27.2l-11.4,4.7l2.8-13.5L66.2,27.2z"/>
<path class="st2" d="M54.6,32l2.9-13.8l8.8,9L54.6,32z M57.6,18.6l-2.8,13.2L66,27.1L57.6,18.6z"/>
<path class="st2" d="M57.6,18.4L69.5,17l-3.3,10.2L57.6,18.4z"/>
<path class="st2" d="M66.2,27.3l-8.8-9l12.2-1.4L66.2,27.3z M57.7,18.4l8.4,8.5l3.2-9.9L57.7,18.4z"/>
<path class="st1" d="M63.8,37.2l-4,2.8l-7.9-6.7L63.8,37.2z"/>
<path class="st1" d="M59.8,40.1l-8.3-7L64,37.2L59.8,40.1z M52.3,33.5l7.5,6.4l3.8-2.6L52.3,33.5z"/>
<path class="st2" d="M69,7.3l0.5,9.7l-11.9,1.4L69,7.3z"/>
<path class="st2" d="M57.3,18.5L69,7.1l0.5,10L57.3,18.5z M68.9,7.5L57.8,18.3l11.6-1.3L68.9,7.5z"/>
<path class="st3" d="M69,7.3L45.1,24.7l-0.3-11.8L69,7.3z"/>
<path class="st3" d="M45.1,24.9l-0.3-12.1l0.1,0l24.5-5.7L45.1,24.9z M44.9,13l0.3,11.6L68.6,7.5L44.9,13z"/>
<path class="st1" d="M27.1,11.5l17.7,1.4l0.3,11.8L27.1,11.5z"/>
<path class="st1" d="M45.2,24.9L26.8,11.4l18.1,1.4L45.2,24.9z M27.4,11.6l17.6,13L44.7,13L27.4,11.6z"/>
<path class="st2" d="M51.9,33.3l-6.8-8.6l12.4-6.3L51.9,33.3z"/>
<path class="st2" d="M51.9,33.5L45,24.7l0.1,0l12.6-6.4L51.9,33.5z M45.3,24.7l6.6,8.4l5.5-14.6L45.3,24.7z"/>
<path class="st0" d="M51.9,33.3l7.9,6.7l-11.1,1.2L51.9,33.3z"/>
<path class="st0" d="M48.6,41.3l3.3-8.2l8.1,6.9L48.6,41.3z M51.9,33.4l-3.1,7.7l10.7-1.2L51.9,33.4z"/>
<path class="st0" d="M48.7,41.2l-3.6-16.5l6.8,8.6L48.7,41.2z"/>
<path class="st0" d="M48.7,41.5L45,24.4l7,8.9L48.7,41.5z M45.3,25.1l3.5,15.9l3.1-7.6L45.3,25.1z"/>
<path class="st2" d="M57.6,18.4l-12.4,6.3L69,7.3L57.6,18.4z"/>
<path class="st2" d="M44.2,25.3L69.9,6.5l-12.3,12l0,0L44.2,25.3z M68,8.1l-22,16.1l11.4-5.8L68,8.1z"/>
<path class="st4" d="M27.3,62.5l5.6,5.9l-7.7-7L27.3,62.5z"/>
<path class="st4" d="M32.8,68.5L24.6,61l2.7,1.5l0,0l5.6,5.9L32.8,68.5z M25.8,61.8l5.3,4.8l-3.9-4.1L25.8,61.8z"/>
<path class="st5" d="M53.5,62.8l2.7-10.2l5.3-0.8L53.5,62.8z"/>
<path class="st5" d="M53.3,63.2l2.8-10.7l0.1,0l5.5-0.8L53.3,63.2z M56.3,52.6l-2.5,9.7l7.6-10.4L56.3,52.6z"/>
<path class="st3" d="M4.5,34.1l9.7-10.3l-8.5,9.1L4.5,34.1z"/>
<path class="st3" d="M4.5,34.2L4.4,34l9.7-10.3l0.1,0.1l-8.5,9.1L4.5,34.2z"/>
<path class="st1" d="M61.5,51.8l-5.3,0.8L59.8,40L61.5,51.8z M45.1,24.7l-9.5-0.3l-8.5-12.9L45.1,24.7z"/>
<path class="st1" d="M56.1,52.7l3.7-13.1l1.8,12.3L56.1,52.7z M59.8,40.4l-3.5,12.1l5.1-0.7L59.8,40.4z M45.4,24.8l-9.8-0.3
	l-8.8-13.4L45.4,24.8z M35.7,24.3l9.2,0.3L27.4,11.8L35.7,24.3z"/>
<path class="st6" d="M59.8,40l-3.6,12.6l-0.3-6.1L59.8,40z"/>
<path class="st6" d="M56.1,53.1l-0.3-6.7l4.2-7L56.1,53.1z M56,46.5l0.3,5.6l3.3-11.5L56,46.5z"/>
<path class="st5" d="M48.7,41.2L59.8,40l-3.9,6.4L48.7,41.2z"/>
<path class="st5" d="M55.9,46.6l-7.4-5.4L60,39.9L55.9,46.6z M49,41.3l6.9,5l3.7-6.2L49,41.3z"/>
<path class="st1" d="M35.7,24.4l9.5,0.3l3.6,16.5L35.7,24.4z"/>
<path class="st1" d="M48.9,41.6L35.5,24.3l9.7,0.3l0,0.1L48.9,41.6z M35.8,24.5l12.7,16.4l-3.5-16.1L35.8,24.5z"/>
<path class="st0" d="M35.7,24.4L10.1,0.6l17,10.9L35.7,24.4z M27.1,66.1L4.9,73L0.4,56L27.1,66.1z"/>
<path class="st0" d="M4.8,73.1L4.8,73.1L0.3,55.8l27.1,10.3L4.8,73.1z M0.5,56.1l4.4,16.8l21.9-6.8L0.5,56.1z M36.1,25L9.3,0
	l17.8,11.4l0,0L36.1,25z M10.8,1.2l24.4,22.7L27,11.5L10.8,1.2z"/>
<path class="st2" d="M7.7,38.3l8.4-6.6l7,1.6L7.7,38.3z"/>
<path class="st2" d="M7.3,38.6l8.8-7l0,0l7.3,1.7L7.3,38.6z M16.2,31.8l-8,6.3l14.7-4.7L16.2,31.8z"/>
<path class="st2" d="M23.2,33.4l-7-1.6l3.8-15.6L23.2,33.4z"/>
<path class="st2" d="M23.3,33.5L16,31.8l3.9-16.1L23.3,33.5z M16.2,31.7l6.8,1.6l-3.2-16.8L16.2,31.7z"/>
<path class="st2" d="M5.7,32.9l10.4-1.1l-8.4,6.6L5.7,32.9z"/>
<path class="st2" d="M7.7,38.5l-2.1-5.7l10.9-1.2L7.7,38.5z M5.8,32.9l2,5.3l8.1-6.4L5.8,32.9z"/>
<path class="st5" d="M55.9,46.4l-4.3-2.2l-2.8-3L55.9,46.4z"/>
<path class="st5" d="M56.8,47l-5.3-2.7L48,40.6L56.8,47z M51.6,44.2l3.4,1.7l-5.5-4L51.6,44.2z"/>
<path class="st2" d="M5.7,32.9L5,28.9l11.2,2.8L5.7,32.9z"/>
<path class="st2" d="M5.6,33l-0.8-4.1l11.8,2.9L5.6,33z M5.1,29l0.7,3.7l9.9-1.1L5.1,29z"/>
<path class="st7" d="M50.7,49.2l0.9-5l4.3,2.2L50.7,49.2z"/>
<path class="st7" d="M50.6,49.3l0.9-5.2l4.6,2.3L50.6,49.3z M51.6,44.4L50.8,49l4.9-2.6L51.6,44.4z"/>
<path class="st1" d="M56.2,52.6l-5.5-3.4l5.2-2.8L56.2,52.6z"/>
<path class="st1" d="M56.3,52.7l-5.8-3.6l5.5-2.9L56.3,52.7z M50.8,49.2l5.3,3.2l-0.3-5.8L50.8,49.2z"/>
<path class="st2" d="M16.1,31.7L5,28.9l-0.9-3.3L16.1,31.7z M19.9,16.1l-3.8,15.6L4.1,25.6L19.9,16.1z M19.9,16.1l15.7,8.3l-12.5,9
	L19.9,16.1z"/>
<path class="st2" d="M23.1,33.5l-3.2-17l-3.7,15.2l0.6,0.3l-0.7-0.2l0,0l-0.1,0L4.9,29L4,25.7l-0.1-0.1l0.1,0l0-0.1L4,25.5L19.8,16
	l0-0.1l0.1,0.1l0.1-0.1l0,0.1l15.8,8.4L23.1,33.5z M20,16.2l3.2,17l12.2-8.8L20,16.2z M4.2,25.6l11.9,6l3.7-15.3L4.2,25.6z M5,28.9
	l10.4,2.6L4.2,25.8L5,28.9z"/>
<path class="st0" d="M23.2,33.4l12.5-9l5.6,17.1L23.2,33.4z M41.2,41.5L24,41.1l-0.8-7.8L41.2,41.5z"/>
<path class="st0" d="M41.4,41.6l-0.2-0.1l-17.3-0.4l-0.8-7.8l-0.1,0l0.1-0.1l0-0.1l0.1,0l12.5-9l0,0.1l5.5,17l0.4,0.2L41.4,41.6
	L41.4,41.6z M24.1,41l16.7,0.4l-17.5-7.9L24.1,41z M23.4,33.3l17.7,8l-5.5-16.8L23.4,33.3z"/>
<path class="st1" d="M7.7,38.3l15.4-5l0.8,7.8L7.7,38.3z M48.7,41.2l-7.5,0.3l-5.6-17.1L48.7,41.2z"/>
<path class="st1" d="M41.1,41.6L35.4,24l13.5,17.3L41.1,41.6z M35.9,24.8l5.4,16.5l7.3-0.3L35.9,24.8z M24.1,41.2L7.4,38.4l15.9-5.1
	L24.1,41.2z M8.1,38.3L23.9,41l-0.8-7.5L8.1,38.3z"/>
<path class="st5" d="M51.6,44.2l-0.9,5l-1.9-8L51.6,44.2z"/>
<path class="st5" d="M50.7,49.6l-2.1-8.7l3.1,3.3L50.7,49.6z M48.9,41.5l1.8,7.3l0.8-4.5L48.9,41.5z"/>
<path class="st2" d="M10.1,0.6l25.6,23.8l-15.7-8.3L10.1,0.6z"/>
<path class="st2" d="M36.2,24.8l-16.3-8.6l0,0L9.6,0.1L36.2,24.8z M20,16l15.1,8L10.5,1.1L20,16z"/>
<path class="st0" d="M0.4,56L22,55.1l5.1,11L0.4,56z"/>
<path class="st0" d="M27.3,66.3L0,55.9L22.1,55L27.3,66.3z M0.8,56l26.1,9.9l-5-10.8L0.8,56z"/>
<path class="st5" d="M27.1,66.1l-5.1-11l10.6-0.5L27.1,66.1z"/>
<path class="st5" d="M27.1,66.3L21.9,55l0.1,0l10.7-0.5L27.1,66.3z M22.1,55.2l5,10.7l5.4-11.2L22.1,55.2z"/>
<path class="st1" d="M50.7,49.2l5.5,3.4l3,7.2L50.7,49.2z M24,41.1L0.4,56l7.3-17.6L24,41.1z M22,55.1L0.4,56L24,41.1L22,55.1z
	 M48.7,41.2l1.4,5.2l-6.8,0.4L48.7,41.2z M43.3,46.8l-2.1-5.3l7.5-0.3L43.3,46.8z"/>
<path class="st1" d="M59.6,60.3l-9.3-11.5l6,3.7L59.6,60.3z M51.1,49.5l7.9,9.7l-2.8-6.6L51.1,49.5z M0.2,56.2l0.1-0.1l-0.2,0
	l0.2-0.2l7.3-17.7L24,41l0.1-0.1l0,0.1l0.1,0L24,41.2l-2,14l-0.1,0L0.4,56.1L0.2,56.2z M23.9,41.3L0.7,55.9L21.9,55L23.9,41.3z
	 M7.8,38.4L0.6,55.8l23.1-14.6L7.8,38.4z M43.3,46.9L43.3,46.9l-0.2-0.1l0.1-0.1l-2.1-5.4l7.6-0.3l0.1-0.1l0,0.1l0.1,0l-0.1,0.1
	l1.4,5.2L43.3,46.9L43.3,46.9z M48.7,41.4l-5.1,5.3l6.5-0.4L48.7,41.4z M41.3,41.6l2,5.1l5.2-5.3L41.3,41.6z"/>
<path class="st4" d="M32.9,68.4l-5.8-2.3l20.2,3.4L32.9,68.4z"/>
<path class="st4" d="M49.2,69.8l-16.3-1.3l0,0l-6.6-2.6L49.2,69.8z M32.9,68.3l12.4,1l-17.4-2.9L32.9,68.3z"/>
<path class="st2" d="M7.7,38.3l-3.3-4.3l1.3-1.2L7.7,38.3z"/>
<path class="st2" d="M8,38.8l-3.7-4.8l1.4-1.4L8,38.8z M4.6,34.1l2.9,3.7L5.7,33L4.6,34.1z"/>
<path class="st8" d="M49.5,67l-2.3,2.5l-20.2-3.4L49.5,67z"/>
<path class="st8" d="M47.3,69.6L47.3,69.6L25.7,66l24,0.9L47.3,69.6z M28.4,66.2l18.8,3.2l2.1-2.4L28.4,66.2z"/>
<path class="st0" d="M50.6,60.8l-23.5,5.3l5.5-11.5L50.6,60.8z"/>
<path class="st0" d="M26.9,66.2l5.6-11.8l0.1,0l18.3,6.3L26.9,66.2z M32.6,54.7L27.2,66l23.1-5.2L32.6,54.7z"/>
<path class="st8" d="M27.1,66.1l23.5-5.3L49.5,67L27.1,66.1z"/>
<path class="st8" d="M49.6,67.1l-23.2-0.9l24.3-5.5L49.6,67.1z M27.7,66l21.7,0.9l1-6L27.7,66z"/>
<path class="st2" d="M4.1,25.6L3.3,12.3l16.6,3.8L4.1,25.6z M5.7,32.9l-2.3-2.3L5,28.9L5.7,32.9z"/>
<path class="st2" d="M5.8,33.1l-2.5-2.6L5,28.8L5.8,33.1z M3.5,30.5l2,2.1l-0.7-3.5L3.5,30.5z M4,25.8L3.2,12.2l17,3.8L4,25.8z
	 M3.4,12.4l0.8,13.1l15.6-9.4L3.4,12.4z"/>
<path class="st5" d="M37.4,44.9l3.9-3.4l-0.6,8.4L37.4,44.9z"/>
<path class="st5" d="M40.7,50.1l-3.5-5.2l4.1-3.6L40.7,50.1z M37.5,44.9l3.1,4.7l0.5-7.9L37.5,44.9z"/>
<path class="st5" d="M41.2,41.5l-3.9,3.4l-5.6,2.9L41.2,41.5z"/>
<path class="st5" d="M30.4,48.6l11.8-7.9L37.4,45l0,0L30.4,48.6z M40.2,42.3L33.1,47l4.2-2.2L40.2,42.3z"/>
<path class="st1" d="M59.2,59.8l-1-0.8l-7.5-9.8L59.2,59.8z"/>
<path class="st1" d="M59.7,60.3l-1.6-1.2l0,0l-7.5-9.8l0.1-0.1L59.7,60.3z M58.3,58.9l0.5,0.4l-4-5L58.3,58.9z"/>
<path class="st5" d="M31.7,47.8L24,41.1l17.2,0.4L31.7,47.8z"/>
<path class="st5" d="M31.7,47.9l-8-6.9l0.2,0l17.5,0.4L31.7,47.9z M24.2,41.2l7.5,6.5l9.2-6.2L24.2,41.2z"/>
<path class="st6" d="M40.7,49.9l0.6-8.4l2.1,5.3L40.7,49.9z"/>
<path class="st6" d="M40.6,50.1l0.6-9l2.3,5.7L40.6,50.1z M41.3,41.9l-0.5,7.7l2.5-2.8L41.3,41.9z"/>
<path class="st2" d="M2.7,26.9l1.4-1.3L5,28.9L2.7,26.9z"/>
<path class="st2" d="M5.1,29.2l-2.6-2.2l1.6-1.5L5.1,29.2z M2.8,26.9l2,1.7L4,25.8L2.8,26.9z"/>
<path class="st7" d="M40.7,49.9l-8.9-2l5.6-2.9L40.7,49.9z"/>
<path class="st7" d="M40.8,50l-9.3-2.1l5.9-3.1L40.8,50z M32,47.8l8.5,1.9L37.3,45L32,47.8z"/>
<path class="st2" d="M19.9,16.1L3.3,12.3l6.8-11.7L19.9,16.1z"/>
<path class="st2" d="M20.1,16.2l-17-3.8l6.9-12L20.1,16.2z M3.4,12.3l16.3,3.7L10.1,0.8L3.4,12.3z"/>
<path class="st4" d="M47.2,69.5l0.9,2.6l-15.3-3.7L47.2,69.5z"/>
<path class="st4" d="M48.3,72.2l-16.5-4l15.5,1.2L48.3,72.2z M33.9,68.6L48.1,72l-0.9-2.4L33.9,68.6z"/>
<path class="st1" d="M32.6,54.6l-0.8-6.7l8.9,2L32.6,54.6z"/>
<path class="st1" d="M32.5,54.7l-0.9-7l9.2,2.1L32.5,54.7z M31.9,47.9l0.8,6.5l7.8-4.5L31.9,47.9z"/>
<path class="st6" d="M24,41.1l7.8,6.7l0.8,6.7L24,41.1z"/>
<path class="st6" d="M32.7,54.9l-9.1-14.3l8.3,7.1L32.7,54.9z M24.4,41.6l8.1,12.6l-0.8-6.3L24.4,41.6z"/>
<path class="st1" d="M43.3,46.8l6.8-0.4L58.2,59L43.3,46.8z M24,41.1l8.6,13.4L22,55.1L24,41.1z"/>
<path class="st1" d="M58.6,59.4L43.1,46.7l7.1-0.4l0,0L58.6,59.4z M43.6,46.8l14.3,11.8l-7.7-12.1L43.6,46.8z M21.9,55.2l2-14.3
	l8.8,13.8L21.9,55.2z M24,41.4L22.1,55l10.3-0.5L24,41.4z"/>
<path class="st6" d="M43.3,46.8l8.5,13l-11.1-9.9L43.3,46.8z"/>
<path class="st6" d="M52.2,60.2L40.5,49.9l2.8-3.2l0.1,0.1L52.2,60.2z M40.8,49.8l10.6,9.4l-8-12.3L40.8,49.8z"/>
<path class="st1" d="M40.7,49.9l11.1,9.9l-1.2,1.1L40.7,49.9z"/>
<path class="st1" d="M50.6,60.9L39.5,48.7l12.4,11L50.6,60.9z M41.8,51l8.8,9.7l1-0.9L41.8,51z"/>
<path class="st1" d="M50.6,60.8l-18-6.2l8.1-4.7L50.6,60.8z M58.2,59l-6.4,0.7l-8.5-13L58.2,59z"/>
<path class="st1" d="M50.9,61l-18.5-6.4l8.3-4.8l0,0L50.9,61z M32.8,54.5l17.5,6.1L40.6,50L32.8,54.5z M51.7,59.8l-8.8-13.5
	l15.5,12.7L51.7,59.8z M43.7,47.2l8.1,12.4l6.1-0.7L43.7,47.2z"/>
<path class="st4" d="M59.9,65.1l-2.8,5.6l-8.9,1.5L59.9,65.1z M48.2,72.1l-0.9-2.6l2.3-2.5L48.2,72.1z"/>
<path class="st4" d="M48.2,72.4l-0.1-0.2l-0.4,0.1l0.3-0.2l-0.9-2.6l2.6-2.8l-1.4,5.3l11.8-7.1l-2.9,5.9l0,0l-8.9,1.4L48.2,72.4z
	 M59.7,65.3l-11,6.6l8.4-1.4L59.7,65.3z M47.3,69.5l0.8,2.3l1.2-4.5L47.3,69.5z"/>
<path class="st4" d="M49.5,67l1.7-0.7l-3,5.8L49.5,67z M48.2,72.1l3-5.8l8.7-1.2L48.2,72.1z"/>
<path class="st4" d="M47.9,72.8l0.1-0.5l-0.1,0l0.1-0.3l1.4-5.2l1.7-0.7l0,0l0,0l0.2-0.1l0,0.1l8.9-1.2l-12,7.2L47.9,72.8z
	 M51.3,66.4l-2.9,5.5l11.1-6.6L51.3,66.4z M49.6,67.1l-1.1,4.3l2.6-4.9L49.6,67.1z"/>
<path class="st9" d="M58.2,59l2.1,1.3l-6.4,0.8L58.2,59z"/>
<path class="st9" d="M53.4,61.2l4.8-2.3l2.4,1.5L53.4,61.2z M58.2,59.1l-3.8,1.8l5.7-0.7L58.2,59.1z"/>
<path class="st9" d="M53.9,61.1l-2.1-1.3l6.4-0.7L53.9,61.1z M53.1,62.1l7.8-1l-1.1,3.9L53.1,62.1z"/>
<path class="st9" d="M59.9,65.2l-7.1-3.2l8.3-1L59.9,65.2z M53.5,62.2l6.4,2.8l1-3.7L53.5,62.2z M53.9,61.2l-2.3-1.5l7.1-0.8
	L53.9,61.2z M52,59.8l1.8,1.2l3.8-1.8L52,59.8z"/>
<path class="st9" d="M59.9,65.1l-8.7,1.2l1.9-4.2L59.9,65.1z M51.2,66.3L49.5,67l1.1-6.2L51.2,66.3z M50.6,60.8l1.2-1.1l2.1,1.3
	L50.6,60.8z M60.3,60.3l0.7,0.8l-7.8,1L60.3,60.3z"/>
<path class="st9" d="M49.4,67.1l1.1-6.3l-0.1,0l0.1-0.1l0.1-0.6l0,0.4l1.1-1l2.4,1.6l-3.5-0.3l0.6,5.1l1.7-3.8l-1.2,0.1l1.3-0.3l0,0
	l0,0l7.2-1.8l0.8,1l-7.7,0.9l6.7,3l-8.9,1.3L49.4,67.1z M50.6,61.4l-1,5.4l1.5-0.6L50.6,61.4z M53.2,62.2l-1.8,4l8.2-1.1L53.2,62.2z
	 M60.3,60.4l-5.8,1.4l6.3-0.8L60.3,60.4z M50.8,60.7l2.7,0.2l-1.7-1.1L50.8,60.7z"/>
<path class="st9" d="M53.1,62.1l0.7-1l6.4-0.8L53.1,62.1z M50.6,60.8l2.5,1.3l-1.9,4.2L50.6,60.8z"/>
<path class="st9" d="M51.2,66.6l-0.7-6l2.6,1.4l0.7-1l0,0l6.6-0.7l-7.2,1.9L51.2,66.6z M50.7,60.9l0.6,5l1.7-3.8l-0.1,0l0.1-0.1
	L50.7,60.9z M53.9,61.2L53.3,62l5.6-1.4L53.9,61.2z"/>
<path class="st9" d="M53.9,61.1l-0.7,1l-2.5-1.3L53.9,61.1z"/>
<path class="st9" d="M53.2,62.2l-3-1.6L54,61L53.2,62.2z M51,60.9l2.1,1.1l0.6-0.8L51,60.9z"/>
</svg>
