<?xml version="1.0" encoding="utf-8"?>
<!-- Generator: Adobe Illustrator 22.1.0, SVG Export Plug-In . SVG Version: 6.00 Build 0)  -->
<svg version="1.1" id="Слой_1" xmlns="http://www.w3.org/2000/svg" xmlns:xlink="http://www.w3.org/1999/xlink" x="0px" y="0px"
	 viewBox="0 0 2500 2500" style="enable-background:new 0 0 2500 2500;" xml:space="preserve">
<style type="text/css">
	.st0{fill:#DEDEDE;}
	.st1{fill:#F3BA2F;}
</style>
<circle class="st0" cx="1250" cy="1250" r="1250"/>
<g>
	<path class="st1" d="M886.4,1100.6L1250,737.1l363.7,363.7l211.5-211.5L1250,314L674.9,889.1L886.4,1100.6 M314,1250l211.5-211.6
		L737.1,1250l-211.5,211.5L314,1250z M886.4,1399.4l363.6,363.5l363.7-363.7l211.6,211.4l-0.1,0.1L1250,2186l-575.1-575.1l-0.3-0.3
		L886.4,1399.4 M1762.9,1250.1l211.5-211.5l211.5,211.5l-211.5,211.5L1762.9,1250.1z"/>
	<path class="st1" d="M1464.5,1249.9L1464.5,1249.9L1250,1035.2l-158.6,158.6l0,0l-18.2,18.2l-37.6,37.6l-0.3,0.3l0.3,0.3
		l214.5,214.5l214.7-214.7l0.1-0.1L1464.5,1249.9"/>
</g>
</svg>
