<svg width="23" height="24" viewBox="0 0 23 24" fill="none" xmlns="http://www.w3.org/2000/svg">
<circle cx="11.5" cy="11.8872" r="11.5" fill="#FDE1AD"/>
<path d="M14.5543 11.6138C14.9777 11.2486 15.2381 10.7547 15.2381 10.2115C15.2381 9.08983 14.1272 8.17719 12.7619 8.17719H12.5714V7.70774C12.5714 7.44856 12.3154 7.23828 12 7.23828C11.6845 7.23828 11.4286 7.44856 11.4286 7.70774V8.17719H10.6667V7.70774C10.6667 7.44856 10.4107 7.23828 10.0952 7.23828C9.77977 7.23828 9.52381 7.44856 9.52381 7.70774V8.17719H8.57142C8.25595 8.17719 8 8.38747 8 8.64665C8 8.90582 8.25595 9.1161 8.57142 9.1161H8.76191V15.0627H8.57142C8.25595 15.0627 8 15.273 8 15.5322C8 15.7913 8.25595 16.0016 8.57142 16.0016H9.52381V16.4711C9.52381 16.7302 9.77977 16.9405 10.0952 16.9405C10.4107 16.9405 10.6667 16.7302 10.6667 16.4711V16.0016H11.4286V16.4711C11.4286 16.7302 11.6845 16.9405 12 16.9405C12.3154 16.9405 12.5714 16.7302 12.5714 16.4711V16.0016H13.1428C14.7184 16.0016 16 14.9487 16 13.6543C16 12.7814 15.4171 12.0182 14.5543 11.6138ZM12.7619 9.11614C13.497 9.11614 14.0953 9.60765 14.0953 10.2116C14.0953 10.8155 13.497 11.307 12.7619 11.307H9.9047V9.11617H12.7619V9.11614ZM13.1428 15.0627H9.9047V12.2459H12.7619H13.1429C14.0882 12.2459 14.8572 12.8777 14.8572 13.6543C14.8571 14.431 14.0882 15.0627 13.1428 15.0627Z" fill="#E7B452"/>
</svg>
