<?xml version="1.0" encoding="utf-8"?>
<!-- Generator: Adobe Illustrator 22.1.0, SVG Export Plug-In . SVG Version: 6.00 Build 0)  -->
<svg version="1.1" id="Слой_1" xmlns="http://www.w3.org/2000/svg" xmlns:xlink="http://www.w3.org/1999/xlink" x="0px" y="0px"
	 viewBox="0 0 2500 2500" style="enable-background:new 0 0 2500 2500;" xml:space="preserve">
<style type="text/css">
	.st0{fill:#DEDEDE;}
	.st1{fill:url(#SVGID_1_);}
	.st2{fill:url(#SVGID_2_);}
	.st3{fill:url(#SVGID_3_);}
</style>
<circle class="st0" cx="1250" cy="1250" r="1250"/>
<g>
	
		<linearGradient id="SVGID_1_" gradientUnits="userSpaceOnUse" x1="1923.7042" y1="155.2706" x2="1010.3668" y2="1904.6791" gradientTransform="matrix(1 0 0 1 0 291)">
		<stop  offset="0" style="stop-color:#00FFA3"/>
		<stop  offset="1" style="stop-color:#DC1FFF"/>
	</linearGradient>
	<path class="st1" d="M691.8,1591.2c10-10,23.7-15.8,38.3-15.8h1319.7c24.1,0,36.2,29.1,19.1,46.2l-260.7,260.7
		c-10,10-23.7,15.8-38.3,15.8H450.2c-24.1,0-36.2-29.1-19.1-46.2L691.8,1591.2z"/>
	
		<linearGradient id="SVGID_2_" gradientUnits="userSpaceOnUse" x1="1524.3783" y1="-53.2108" x2="611.0409" y2="1696.1978" gradientTransform="matrix(1 0 0 1 0 291)">
		<stop  offset="0" style="stop-color:#00FFA3"/>
		<stop  offset="1" style="stop-color:#DC1FFF"/>
	</linearGradient>
	<path class="st2" d="M691.8,617.8c10.4-10,24.1-15.8,38.3-15.8h1319.7c24.1,0,36.2,29.1,19.1,46.2l-260.7,260.7
		c-10,10-23.7,15.8-38.3,15.8H450.2c-24.1,0-36.2-29.1-19.1-46.2L691.8,617.8z"/>
	
		<linearGradient id="SVGID_3_" gradientUnits="userSpaceOnUse" x1="1722.7621" y1="50.3619" x2="809.4242" y2="1799.7706" gradientTransform="matrix(1 0 0 1 0 291)">
		<stop  offset="0" style="stop-color:#00FFA3"/>
		<stop  offset="1" style="stop-color:#DC1FFF"/>
	</linearGradient>
	<path class="st3" d="M1808.2,1101.4c-10-10-23.7-15.8-38.3-15.8H450.2c-24.1,0-36.2,29.1-19.1,46.2l260.7,260.7
		c10,10,23.7,15.8,38.3,15.8h1319.7c24.1,0,36.2-29.1,19.1-46.2L1808.2,1101.4z"/>
</g>
</svg>
