<svg width="25" height="25" viewBox="0 0 25 25" fill="none" xmlns="http://www.w3.org/2000/svg">
<path d="M24.2449 12.77C24.2449 11.98 24.1749 11.23 24.0549 10.5H12.7549V15.01H19.2249C18.9349 16.49 18.0849 17.74 16.8249 18.59V21.59H20.6849C22.9449 19.5 24.2449 16.42 24.2449 12.77Z" fill="#4285F4"/>
<path d="M12.7549 24.5C15.9949 24.5 18.7049 23.42 20.6849 21.59L16.8249 18.59C15.7449 19.31 14.3749 19.75 12.7549 19.75C9.62492 19.75 6.97492 17.64 6.02492 14.79H2.04492V17.88C4.01492 21.8 8.06492 24.5 12.7549 24.5Z" fill="#34A853"/>
<path d="M6.02488 14.7901C5.77488 14.0701 5.64488 13.3001 5.64488 12.5001C5.64488 11.7001 5.78488 10.9301 6.02488 10.2101V7.12012H2.04488C1.22488 8.74012 0.754883 10.5601 0.754883 12.5001C0.754883 14.4401 1.22488 16.2601 2.04488 17.8801L6.02488 14.7901Z" fill="#FBBC05"/>
<path d="M12.7549 5.25C14.5249 5.25 16.1049 5.86 17.3549 7.05L20.7749 3.63C18.7049 1.69 15.9949 0.5 12.7549 0.5C8.06492 0.5 4.01492 3.2 2.04492 7.12L6.02492 10.21C6.97492 7.36 9.62492 5.25 12.7549 5.25Z" fill="#EA4335"/>
</svg>
